<mxfile host="65bd71144e">
    <diagram id="wvQ66U3HLiB5DhwhfSA0" name="Page-1">
        <mxGraphModel dx="997" dy="807" grid="1" gridSize="10" guides="1" tooltips="1" connect="1" arrows="1" fold="1" page="1" pageScale="1" pageWidth="827" pageHeight="1169" background="none" math="0" shadow="0">
            <root>
                <mxCell id="0"/>
                <mxCell id="1" parent="0"/>
                <mxCell id="_7XwWa7vVdsC-p9nLkgi-1" value="program" style="rounded=0;whiteSpace=wrap;html=1;" parent="1" vertex="1">
                    <mxGeometry x="50" y="40" width="120" height="60" as="geometry"/>
                </mxCell>
                <mxCell id="_7XwWa7vVdsC-p9nLkgi-2" value="" style="shape=curlyBracket;whiteSpace=wrap;html=1;rounded=1;" parent="1" vertex="1">
                    <mxGeometry x="190" y="10" width="20" height="120" as="geometry"/>
                </mxCell>
                <mxCell id="_7XwWa7vVdsC-p9nLkgi-3" value="创建" style="text;html=1;align=center;verticalAlign=middle;resizable=0;points=[];autosize=1;strokeColor=none;fillColor=none;" parent="1" vertex="1">
                    <mxGeometry x="220" y="30" width="40" height="20" as="geometry"/>
                </mxCell>
                <mxCell id="_7XwWa7vVdsC-p9nLkgi-4" value="执行" style="text;html=1;align=center;verticalAlign=middle;resizable=0;points=[];autosize=1;strokeColor=none;fillColor=none;" parent="1" vertex="1">
                    <mxGeometry x="220" y="100" width="40" height="20" as="geometry"/>
                </mxCell>
                <mxCell id="_7XwWa7vVdsC-p9nLkgi-5" value="" style="shape=curlyBracket;whiteSpace=wrap;html=1;rounded=1;" parent="1" vertex="1">
                    <mxGeometry x="260" y="10" width="20" height="60" as="geometry"/>
                </mxCell>
                <mxCell id="_7XwWa7vVdsC-p9nLkgi-6" value="作用域链： 当前变量、所有父级变量&lt;br&gt;&lt;br&gt;变量： 参数、变量、函数&lt;br&gt;&lt;br&gt;context: this&lt;br&gt;" style="text;html=1;align=center;verticalAlign=middle;resizable=0;points=[];autosize=1;strokeColor=none;fillColor=none;" parent="1" vertex="1">
                    <mxGeometry x="280" width="210" height="80" as="geometry"/>
                </mxCell>
                <mxCell id="_7XwWa7vVdsC-p9nLkgi-7" value="" style="shape=curlyBracket;whiteSpace=wrap;html=1;rounded=1;" parent="1" vertex="1">
                    <mxGeometry x="260" y="80" width="20" height="60" as="geometry"/>
                </mxCell>
                <mxCell id="_7XwWa7vVdsC-p9nLkgi-8" value="" style="endArrow=classic;html=1;rounded=0;" parent="1" edge="1">
                    <mxGeometry width="50" height="50" relative="1" as="geometry">
                        <mxPoint x="550" y="60" as="sourcePoint"/>
                        <mxPoint x="550" y="110" as="targetPoint"/>
                    </mxGeometry>
                </mxCell>
                <mxCell id="_7XwWa7vVdsC-p9nLkgi-9" value="变量赋值&lt;br&gt;&lt;br&gt;变量使用&lt;br&gt;&lt;br&gt;函数引用" style="text;html=1;align=center;verticalAlign=middle;resizable=0;points=[];autosize=1;strokeColor=none;fillColor=none;" parent="1" vertex="1">
                    <mxGeometry x="290" y="80" width="60" height="80" as="geometry"/>
                </mxCell>
                <mxCell id="_7XwWa7vVdsC-p9nLkgi-10" value="单线程" style="text;html=1;align=center;verticalAlign=middle;resizable=0;points=[];autosize=1;strokeColor=none;fillColor=none;" parent="1" vertex="1">
                    <mxGeometry x="45" y="200" width="50" height="20" as="geometry"/>
                </mxCell>
                <mxCell id="_7XwWa7vVdsC-p9nLkgi-11" value="" style="rounded=0;whiteSpace=wrap;html=1;" parent="1" vertex="1">
                    <mxGeometry x="60" y="230" width="120" height="160" as="geometry"/>
                </mxCell>
                <mxCell id="_7XwWa7vVdsC-p9nLkgi-12" value="call stack" style="text;html=1;align=center;verticalAlign=middle;resizable=0;points=[];autosize=1;strokeColor=none;fillColor=none;" parent="1" vertex="1">
                    <mxGeometry x="90" y="210" width="60" height="20" as="geometry"/>
                </mxCell>
                <mxCell id="_7XwWa7vVdsC-p9nLkgi-13" value="course" style="rounded=1;whiteSpace=wrap;html=1;" parent="1" vertex="1">
                    <mxGeometry x="70" y="350" width="100" height="30" as="geometry"/>
                </mxCell>
                <mxCell id="_7XwWa7vVdsC-p9nLkgi-14" value="session" style="rounded=1;whiteSpace=wrap;html=1;" parent="1" vertex="1">
                    <mxGeometry x="70" y="310" width="100" height="30" as="geometry"/>
                </mxCell>
                <mxCell id="_7XwWa7vVdsC-p9nLkgi-15" value="teacher" style="rounded=1;whiteSpace=wrap;html=1;" parent="1" vertex="1">
                    <mxGeometry x="70" y="270" width="100" height="30" as="geometry"/>
                </mxCell>
                <mxCell id="_7XwWa7vVdsC-p9nLkgi-16" value="" style="rounded=0;whiteSpace=wrap;html=1;" parent="1" vertex="1">
                    <mxGeometry x="270" y="230" width="130" height="160" as="geometry"/>
                </mxCell>
                <mxCell id="_7XwWa7vVdsC-p9nLkgi-17" value="" style="rounded=0;whiteSpace=wrap;html=1;" parent="1" vertex="1">
                    <mxGeometry x="280" y="240" width="110" height="140" as="geometry"/>
                </mxCell>
                <mxCell id="_7XwWa7vVdsC-p9nLkgi-18" value="" style="rounded=0;whiteSpace=wrap;html=1;" parent="1" vertex="1">
                    <mxGeometry x="290" y="250" width="90" height="120" as="geometry"/>
                </mxCell>
                <mxCell id="_7XwWa7vVdsC-p9nLkgi-19" value="d" style="rounded=0;whiteSpace=wrap;html=1;" parent="1" vertex="1">
                    <mxGeometry x="300" y="260" width="70" height="100" as="geometry"/>
                </mxCell>
                <mxCell id="_7XwWa7vVdsC-p9nLkgi-20" value="c" style="text;html=1;align=center;verticalAlign=middle;resizable=0;points=[];autosize=1;strokeColor=none;fillColor=none;" parent="1" vertex="1">
                    <mxGeometry x="325" y="240" width="20" height="20" as="geometry"/>
                </mxCell>
                <mxCell id="_7XwWa7vVdsC-p9nLkgi-21" value="b" style="text;html=1;align=center;verticalAlign=middle;resizable=0;points=[];autosize=1;strokeColor=none;fillColor=none;" parent="1" vertex="1">
                    <mxGeometry x="325" y="230" width="20" height="20" as="geometry"/>
                </mxCell>
                <mxCell id="_7XwWa7vVdsC-p9nLkgi-22" value="a" style="text;html=1;align=center;verticalAlign=middle;resizable=0;points=[];autosize=1;strokeColor=none;fillColor=none;" parent="1" vertex="1">
                    <mxGeometry x="325" y="220" width="20" height="20" as="geometry"/>
                </mxCell>
                <mxCell id="_7XwWa7vVdsC-p9nLkgi-23" value="" style="endArrow=classic;html=1;rounded=0;" parent="1" edge="1">
                    <mxGeometry width="50" height="50" relative="1" as="geometry">
                        <mxPoint x="429" y="350" as="sourcePoint"/>
                        <mxPoint x="429" y="260" as="targetPoint"/>
                    </mxGeometry>
                </mxCell>
                <mxCell id="_7XwWa7vVdsC-p9nLkgi-24" value="作用域链查找，创建态" style="text;html=1;align=center;verticalAlign=middle;resizable=0;points=[];autosize=1;strokeColor=none;fillColor=none;" parent="1" vertex="1">
                    <mxGeometry x="430" y="300" width="140" height="20" as="geometry"/>
                </mxCell>
                <mxCell id="_7XwWa7vVdsC-p9nLkgi-25" value="obj: {&lt;br&gt;&lt;span style=&quot;white-space: pre&quot;&gt;&#9;&lt;/span&gt;fn&lt;br&gt;}" style="text;html=1;align=center;verticalAlign=middle;resizable=0;points=[];autosize=1;strokeColor=none;fillColor=none;" parent="1" vertex="1">
                    <mxGeometry x="45" y="435" width="50" height="50" as="geometry"/>
                </mxCell>
                <mxCell id="_7XwWa7vVdsC-p9nLkgi-28" value="" style="edgeStyle=orthogonalEdgeStyle;rounded=0;orthogonalLoop=1;jettySize=auto;html=1;" parent="1" source="_7XwWa7vVdsC-p9nLkgi-26" target="_7XwWa7vVdsC-p9nLkgi-27" edge="1">
                    <mxGeometry relative="1" as="geometry"/>
                </mxCell>
                <mxCell id="_7XwWa7vVdsC-p9nLkgi-26" value="obj" style="rounded=0;whiteSpace=wrap;html=1;" parent="1" vertex="1">
                    <mxGeometry x="60" y="485" width="120" height="60" as="geometry"/>
                </mxCell>
                <mxCell id="_7XwWa7vVdsC-p9nLkgi-33" value="" style="edgeStyle=orthogonalEdgeStyle;rounded=0;orthogonalLoop=1;jettySize=auto;html=1;entryX=0;entryY=0.5;entryDx=0;entryDy=0;" parent="1" source="_7XwWa7vVdsC-p9nLkgi-27" target="_7XwWa7vVdsC-p9nLkgi-30" edge="1">
                    <mxGeometry relative="1" as="geometry"/>
                </mxCell>
                <mxCell id="_7XwWa7vVdsC-p9nLkgi-27" value="fn" style="rounded=0;whiteSpace=wrap;html=1;" parent="1" vertex="1">
                    <mxGeometry x="60" y="625" width="120" height="60" as="geometry"/>
                </mxCell>
                <mxCell id="_7XwWa7vVdsC-p9nLkgi-29" value="addr" style="text;html=1;align=center;verticalAlign=middle;resizable=0;points=[];autosize=1;strokeColor=none;fillColor=none;" parent="1" vertex="1">
                    <mxGeometry x="40" y="580" width="40" height="20" as="geometry"/>
                </mxCell>
                <mxCell id="_7XwWa7vVdsC-p9nLkgi-35" value="" style="edgeStyle=orthogonalEdgeStyle;rounded=0;orthogonalLoop=1;jettySize=auto;html=1;" parent="1" source="_7XwWa7vVdsC-p9nLkgi-30" target="_7XwWa7vVdsC-p9nLkgi-34" edge="1">
                    <mxGeometry relative="1" as="geometry"/>
                </mxCell>
                <mxCell id="_7XwWa7vVdsC-p9nLkgi-30" value="value: addr" style="rounded=0;whiteSpace=wrap;html=1;" parent="1" vertex="1">
                    <mxGeometry x="270" y="590" width="120" height="60" as="geometry"/>
                </mxCell>
                <mxCell id="_7XwWa7vVdsC-p9nLkgi-31" value="" style="rounded=0;whiteSpace=wrap;html=1;" parent="1" vertex="1">
                    <mxGeometry x="270" y="650" width="120" height="60" as="geometry"/>
                </mxCell>
                <mxCell id="_7XwWa7vVdsC-p9nLkgi-32" value="" style="rounded=0;whiteSpace=wrap;html=1;" parent="1" vertex="1">
                    <mxGeometry x="270" y="710" width="120" height="60" as="geometry"/>
                </mxCell>
                <mxCell id="_7XwWa7vVdsC-p9nLkgi-34" value="function fn(){}" style="rounded=0;whiteSpace=wrap;html=1;" parent="1" vertex="1">
                    <mxGeometry x="270" y="485" width="120" height="60" as="geometry"/>
                </mxCell>
            </root>
        </mxGraphModel>
    </diagram>
</mxfile>